P3
64 64
255
0 0 0 0 0 0 0 0 0 0 0 0 0 0 0 0 0 0 0 0 0 0 0 0 0 0 0 0 0 0 0 0 0 0 0 0 0 0 0 0 0 0 0 0 0 0 0 0 0 0 0 0 0 0 0 0 0 0 0 0 0 0 0 0 0 0 0 0 0 0 0 0 0 0 0 0 0 0 0 0 0 0 0 0 0 0 0 0 0 0 0 0 0 0 0 0 0 0 0 0 0 0 0 0 0 0 0 0 0 0 0 0 0 0 0 0 0 0 0 0 0 0 0 0 0 0 0 0 0 0 0 0 0 0 0 0 0 0 0 0 0 0 0 0 0 0 0 0 0 0 0 0 0 0 0 0 0 0 0 0 0 0 0 0 0 0 0 0 0 0 0 0 0 0 0 0 0 0 0 0 0 0 0 0 0 0 0 0 0 0 0 0 
0 0 0 0 0 0 0 0 0 0 0 0 0 0 0 0 0 0 0 0 0 0 0 0 0 0 0 0 0 0 0 0 0 0 0 0 0 0 0 0 0 0 0 0 0 0 0 0 0 0 0 0 0 0 0 0 0 0 0 0 0 0 0 0 0 0 0 0 0 0 0 0 0 0 0 0 0 0 0 0 0 0 0 0 0 0 0 0 0 0 0 0 0 0 0 0 0 0 0 0 0 0 0 0 0 0 0 0 0 0 0 0 0 0 0 0 0 0 0 0 0 0 0 0 0 0 0 0 0 0 0 0 0 0 0 0 0 0 0 0 0 0 0 0 0 0 0 0 0 0 0 0 0 0 0 0 0 0 0 0 0 0 0 0 0 0 0 0 0 0 0 0 0 0 0 0 0 0 0 0 0 0 0 0 0 0 0 0 0 0 0 0 
0 0 0 0 0 0 0 0 0 0 0 0 0 0 0 0 0 0 0 0 0 0 0 0 0 0 0 0 0 0 0 0 0 0 0 0 0 0 0 0 0 0 0 0 0 0 0 0 0 0 0 0 0 0 0 0 0 0 0 0 0 0 0 0 0 0 0 0 0 0 0 0 0 0 0 0 0 0 0 0 0 0 0 0 0 0 0 0 0 0 0 0 0 0 0 0 0 0 0 0 0 0 0 0 0 0 0 0 0 0 0 0 0 0 0 0 0 0 0 0 0 0 0 0 0 0 0 0 0 0 0 0 0 0 0 0 0 0 0 0 0 0 0 0 0 0 0 0 0 0 0 0 0 0 0 0 0 0 0 0 0 0 0 0 0 0 0 0 0 0 0 0 0 0 0 0 0 0 0 0 0 0 0 0 0 0 0 0 0 0 0 0 
0 0 0 0 0 0 0 0 0 0 0 0 0 0 0 0 0 0 0 0 0 0 0 0 0 0 0 0 0 0 0 0 0 0 0 0 0 0 0 0 0 0 0 0 0 0 0 0 0 0 0 0 0 0 0 0 0 0 0 0 0 0 0 0 0 0 0 0 0 0 0 0 0 0 0 0 0 0 0 0 0 0 0 0 0 0 0 0 0 0 0 0 0 0 0 0 0 0 0 0 0 0 0 0 0 0 0 0 0 0 0 0 0 0 0 0 0 0 0 0 0 0 0 0 0 0 0 0 0 0 0 0 0 0 0 0 0 0 0 0 0 0 0 0 0 0 0 0 0 0 0 0 0 0 0 0 0 0 0 0 0 0 0 0 0 0 0 0 0 0 0 0 0 0 0 0 0 0 0 0 0 0 0 0 0 0 0 0 0 0 0 0 
0 0 0 0 0 0 0 0 0 0 0 0 10 13 18 13 19 24 13 19 24 13 19 24 13 19 24 13 19 24 13 19 24 13 19 24 13 19 24 13 19 24 13 19 24 13 19 24 13 19 24 13 19 24 13 19 24 13 19 24 13 19 24 13 19 24 13 19 24 13 19 24 13 19 24 13 19 24 13 19 24 13 19 24 13 19 24 13 19 24 13 19 24 13 19 24 13 19 24 13 19 24 13 19 24 13 19 24 13 19 24 13 19 24 13 19 24 13 19 24 13 19 24 13 19 24 13 19 24 13 19 24 13 19 24 13 19 24 13 19 24 13 19 24 13 19 24 13 19 24 13 19 24 13 19 24 13 19 24 13 19 24 13 19 24 13 19 24 13 18 24 11 16 21 9 13 17 7 9 12 0 0 0 0 0 0 0 0 0 0 0 0 
0 0 0 0 0 0 13 18 23 58 80 105 67 93 122 67 93 122 67 93 122 67 93 122 67 93 122 67 93 122 67 93 122 67 93 122 67 93 122 67 93 122 67 93 122 67 93 122 67 93 122 67 93 122 67 93 122 67 93 122 67 93 122 67 93 122 67 93 122 67 93 122 67 93 122 67 93 122 67 93 122 67 93 122 67 93 122 67 93 122 67 93 122 67 93 122 67 93 122 67 93 122 67 93 122 67 93 122 67 93 122 67 93 122 67 93 122 67 93 122 67 93 122 67 93 122 67 93 122 67 93 122 67 93 122 67 93 122 67 93 122 67 93 122 67 93 122 67 93 122 67 93 122 67 93 122 67 93 122 67 93 122 67 93 122 67 93 122 67 93 122 67 93 122 58 80 105 45 62 83 39 53 72 8 11 15 0 0 0 0 0 0 
0 0 0 0 0 0 56 78 102 67 93 122 67 93 122 67 93 122 67 93 122 67 93 122 67 93 122 67 93 122 67 93 122 67 93 122 67 93 122 67 93 122 67 93 122 67 93 122 67 93 122 67 93 122 67 93 122 67 93 122 67 93 122 67 93 122 67 93 122 67 93 122 67 93 122 67 93 122 67 93 122 67 93 122 67 93 122 67 93 122 67 93 122 67 93 122 67 93 122 67 93 122 67 93 122 67 93 122 67 93 122 67 93 122 67 93 122 67 93 122 67 93 122 67 93 122 67 93 122 67 93 122 67 93 122 67 93 122 67 93 122 67 93 122 67 93 122 67 93 122 67 93 122 67 93 122 67 93 122 67 93 122 67 93 122 67 93 122 67 93 122 67 93 122 66 92 122 48 65 88 45 62 83 37 51 69 0 0 0 0 0 0 
0 0 0 6 8 11 67 93 122 67 93 122 67 93 122 67 93 122 67 93 122 67 93 122 67 93 122 67 93 122 67 93 122 67 93 122 67 93 122 67 93 122 67 93 122 67 93 122 67 93 122 67 93 122 67 93 122 67 93 122 67 93 122 67 93 122 67 93 122 67 93 122 67 93 122 67 93 122 67 93 122 67 93 122 67 93 122 67 93 122 67 93 122 67 93 122 67 93 122 67 93 122 67 93 122 67 93 122 67 93 122 67 93 122 67 93 122 67 93 122 67 93 122 67 93 122 67 93 122 67 93 122 67 93 122 67 93 122 67 93 122 67 93 122 67 93 122 67 93 122 67 93 122 67 93 122 67 93 122 67 93 122 67 93 122 67 93 122 67 93 122 67 93 122 67 93 122 52 71 95 45 62 83 45 62 83 4 5 7 0 0 0 
0 0 0 8 12 15 67 93 122 67 93 122 67 93 122 67 93 122 67 93 122 67 93 122 67 93 122 67 93 122 67 93 122 67 93 122 67 93 122 67 93 122 67 93 122 67 93 122 67 93 122 67 93 122 67 93 122 67 93 122 67 93 122 67 93 122 67 93 122 67 93 122 67 93 122 67 93 122 67 93 122 67 93 122 67 93 122 67 93 122 67 93 122 67 93 122 67 93 122 67 93 122 67 93 122 67 93 122 67 93 122 67 93 122 67 93 122 67 93 122 67 93 122 67 93 122 67 93 122 67 93 122 67 93 122 67 93 122 67 93 122 67 93 122 67 93 122 67 93 122 67 93 122 67 93 122 67 93 122 67 93 122 67 93 122 67 93 122 67 93 122 67 93 122 67 93 122 52 72 95 45 62 83 45 62 83 6 8 10 0 0 0 
0 0 0 8 12 15 67 93 122 67 93 122 67 93 122 67 93 122 67 93 122 67 93 122 67 93 122 67 93 122 67 93 122 67 93 122 67 93 122 67 93 122 67 93 122 67 93 122 67 93 122 67 93 122 67 93 122 67 93 122 67 93 122 67 93 122 67 93 122 67 93 122 67 93 122 67 93 122 67 93 122 67 93 122 67 93 122 67 93 122 67 93 122 67 93 122 67 93 122 67 93 122 67 93 122 67 93 122 67 93 122 67 93 122 67 93 122 67 93 122 67 93 122 67 93 122 67 93 122 67 93 122 67 93 122 67 93 122 67 93 122 67 93 122 67 93 122 67 93 122 67 93 122 67 93 122 67 93 122 67 93 122 67 93 122 67 93 122 67 93 122 67 93 122 67 93 122 52 72 95 45 62 83 45 62 83 6 8 10 0 0 0 
0 0 0 8 12 15 67 93 122 67 93 122 67 93 122 67 93 122 67 93 122 67 93 122 67 93 122 67 93 122 67 93 122 67 93 122 67 93 122 67 93 122 67 93 122 67 93 122 67 93 122 67 93 122 67 93 122 67 93 122 67 93 122 67 93 122 67 93 122 67 93 122 67 93 122 67 93 122 67 93 122 67 93 122 67 93 122 67 93 122 67 93 122 67 93 122 67 93 122 67 93 122 67 93 122 67 93 122 67 93 122 67 93 122 67 93 122 67 93 122 67 93 122 67 93 122 67 93 122 67 93 122 67 93 122 67 93 122 67 93 122 67 93 122 67 93 122 67 93 122 67 93 122 67 93 122 67 93 122 67 93 122 67 93 122 67 93 122 67 93 122 67 93 122 67 93 122 52 72 95 45 62 83 45 62 83 6 8 10 0 0 0 
0 0 0 8 12 15 67 93 122 67 93 122 67 93 122 67 93 122 67 93 122 67 93 122 67 93 122 67 93 122 67 93 122 67 93 122 67 93 122 67 93 122 67 93 122 67 93 122 67 93 122 67 93 122 67 93 122 67 93 122 67 93 122 67 93 122 67 93 122 67 93 122 67 93 122 67 93 122 67 93 122 67 93 122 67 93 122 67 93 122 67 93 122 67 93 122 67 93 122 67 93 122 67 93 122 67 93 122 67 93 122 67 93 122 67 93 122 67 93 122 67 93 122 67 93 122 67 93 122 67 93 122 67 93 122 67 93 122 67 93 122 67 93 122 67 93 122 67 93 122 67 93 122 67 93 122 67 93 122 67 93 122 67 93 122 67 93 122 67 93 122 67 93 122 67 93 122 52 72 95 45 62 83 45 62 83 6 8 10 0 0 0 
0 0 0 8 12 15 67 93 122 67 93 122 67 93 122 67 93 122 67 93 122 67 93 122 67 93 122 67 93 122 67 93 122 67 93 122 67 93 122 67 93 122 67 93 122 67 93 122 67 93 122 67 93 122 67 93 122 67 93 122 67 93 122 67 93 122 67 93 122 67 93 122 67 93 122 67 93 122 67 93 122 67 93 122 67 93 122 67 93 122 67 93 122 67 93 122 67 93 122 67 93 122 67 93 122 67 93 122 67 93 122 67 93 122 67 93 122 67 93 122 67 93 122 67 93 122 67 93 122 67 93 122 67 93 122 67 93 122 67 93 122 67 93 122 67 93 122 67 93 122 67 93 122 67 93 122 67 93 122 67 93 122 67 93 122 67 93 122 67 93 122 67 93 122 67 93 122 52 72 95 45 62 83 45 62 83 6 8 10 0 0 0 
0 0 0 8 12 15 67 93 122 67 93 122 67 93 122 67 93 122 67 93 122 67 93 122 67 93 122 67 93 122 67 93 122 67 93 122 67 93 122 67 93 122 67 93 122 67 93 122 67 93 122 67 93 122 67 93 122 67 93 122 67 93 122 67 93 122 67 93 122 67 93 122 67 93 122 67 93 122 67 93 122 67 93 122 67 93 122 67 93 122 67 93 122 67 93 122 67 93 122 67 93 122 67 93 122 67 93 122 67 93 122 67 93 122 67 93 122 67 93 122 67 93 122 67 93 122 67 93 122 67 93 122 67 93 122 67 93 122 67 93 122 67 93 122 67 93 122 67 93 122 67 93 122 67 93 122 67 93 122 67 93 122 67 93 122 67 93 122 67 93 122 67 93 122 67 93 122 52 72 95 45 62 83 45 62 83 6 8 10 0 0 0 
0 0 0 8 12 15 67 93 122 67 93 122 67 93 122 67 93 122 67 93 122 67 93 122 67 93 122 67 93 122 67 93 122 67 93 122 67 93 122 67 93 122 67 93 122 67 93 122 67 93 122 67 93 122 67 93 122 67 93 122 67 93 122 67 93 122 67 93 122 67 93 122 67 93 122 67 93 122 67 93 122 67 93 122 67 93 122 67 93 122 67 93 122 67 93 122 67 93 122 67 93 122 67 93 122 67 93 122 67 93 122 67 93 122 67 93 122 67 93 122 67 93 122 67 93 122 67 93 122 67 93 122 67 93 122 67 93 122 67 93 122 67 93 122 67 93 122 67 93 122 67 93 122 67 93 122 67 93 122 67 93 122 67 93 122 67 93 122 67 93 122 67 93 122 67 93 122 52 72 95 45 62 83 45 62 83 6 8 10 0 0 0 
0 0 0 8 12 15 67 93 122 67 93 122 67 93 122 67 93 122 67 93 122 67 93 122 67 93 122 67 93 122 67 93 122 67 93 122 67 93 122 67 93 122 67 93 122 67 93 122 67 93 122 67 93 122 67 93 122 67 93 122 67 93 122 67 93 122 67 93 122 67 93 122 67 93 122 67 93 122 67 93 122 67 93 122 67 93 122 67 93 122 67 93 122 67 93 122 67 93 122 67 93 122 67 93 122 67 93 122 67 93 122 67 93 122 67 93 122 67 93 122 67 93 122 67 93 122 67 93 122 67 93 122 67 93 122 67 93 122 67 93 122 67 93 122 67 93 122 67 93 122 67 93 122 67 93 122 67 93 122 67 93 122 67 93 122 67 93 122 67 93 122 67 93 122 67 93 122 52 72 95 45 62 83 45 62 83 6 8 10 0 0 0 
0 0 0 8 12 15 67 93 122 67 93 122 67 93 122 67 93 122 67 93 122 67 93 122 67 93 122 67 93 122 67 93 122 67 93 122 67 93 122 67 93 122 67 93 122 67 93 122 67 93 122 67 93 122 67 93 122 67 93 122 67 93 122 67 93 122 67 93 122 67 93 122 67 93 122 67 93 122 67 93 122 67 93 122 67 93 122 67 93 122 67 93 122 67 93 122 67 93 122 67 93 122 67 93 122 67 93 122 67 93 122 67 93 122 67 93 122 67 93 122 67 93 122 67 93 122 67 93 122 67 93 122 67 93 122 67 93 122 67 93 122 67 93 122 67 93 122 67 93 122 67 93 122 67 93 122 67 93 122 67 93 122 67 93 122 67 93 122 67 93 122 67 93 122 67 93 122 52 72 95 45 62 83 45 62 83 6 8 10 0 0 0 
0 0 0 8 12 15 67 93 122 67 93 122 67 93 122 67 93 122 67 93 122 67 93 122 67 93 122 67 93 122 67 93 122 67 93 122 67 93 122 67 93 122 67 93 122 67 93 122 67 93 122 67 93 122 67 93 122 67 93 122 67 93 122 67 93 122 67 93 122 67 93 122 67 93 122 67 93 122 67 93 122 67 93 122 67 93 122 67 93 122 67 93 122 67 93 122 67 93 122 67 93 122 67 93 122 67 93 122 67 93 122 67 93 122 67 93 122 67 93 122 67 93 122 67 93 122 67 93 122 67 93 122 67 93 122 67 93 122 67 93 122 67 93 122 67 93 122 67 93 122 67 93 122 67 93 122 67 93 122 67 93 122 67 93 122 67 93 122 67 93 122 67 93 122 67 93 122 52 72 95 45 62 83 45 62 83 6 8 10 0 0 0 
0 0 0 8 12 15 67 93 122 67 93 122 67 93 122 67 93 122 67 93 122 67 93 122 67 93 122 67 93 122 67 93 122 67 93 122 67 93 122 67 93 122 67 93 122 67 93 122 67 93 122 67 93 122 67 93 122 67 93 122 67 93 122 67 93 122 67 93 122 67 93 122 67 93 122 67 93 122 67 93 122 67 93 122 67 93 122 67 93 122 67 93 122 67 93 122 67 93 122 67 93 122 67 93 122 67 93 122 67 93 122 67 93 122 67 93 122 67 93 122 67 93 122 67 93 122 67 93 122 67 93 122 67 93 122 67 93 122 67 93 122 67 93 122 67 93 122 67 93 122 67 93 122 67 93 122 67 93 122 67 93 122 67 93 122 67 93 122 67 93 122 67 93 122 67 93 122 52 72 95 45 62 83 45 62 83 6 8 10 0 0 0 
0 0 0 8 12 15 67 93 122 67 93 122 67 93 122 67 93 122 67 93 122 67 93 122 67 93 122 67 93 122 67 93 122 67 93 122 67 93 122 67 93 122 67 93 122 67 93 122 67 93 122 67 93 122 67 93 122 67 93 122 67 93 122 67 93 122 67 93 122 67 93 122 67 93 122 67 93 122 67 93 122 67 93 122 67 93 122 67 93 122 67 93 122 67 93 122 67 93 122 67 93 122 67 93 122 67 93 122 67 93 122 67 93 122 67 93 122 67 93 122 67 93 122 67 93 122 67 93 122 67 93 122 67 93 122 67 93 122 67 93 122 67 93 122 67 93 122 67 93 122 67 93 122 67 93 122 67 93 122 67 93 122 67 93 122 67 93 122 67 93 122 67 93 122 67 93 122 52 72 95 45 62 83 45 62 83 6 8 10 0 0 0 
0 0 0 8 12 15 67 93 122 67 93 122 67 93 122 67 93 122 67 93 122 67 93 122 67 93 122 67 93 122 67 93 122 67 93 122 67 93 122 67 93 122 67 93 122 67 93 122 67 93 122 67 93 122 67 93 122 67 93 122 67 93 122 67 93 122 67 93 122 67 93 122 67 93 122 67 93 122 67 93 122 67 93 122 67 93 122 67 93 122 67 93 122 67 93 122 67 93 122 67 93 122 67 93 122 67 93 122 67 93 122 67 93 122 67 93 122 67 93 122 67 93 122 67 93 122 67 93 122 67 93 122 67 93 122 67 93 122 67 93 122 67 93 122 67 93 122 67 93 122 67 93 122 67 93 122 67 93 122 67 93 122 67 93 122 67 93 122 67 93 122 67 93 122 67 93 122 52 72 95 45 62 83 45 62 83 6 8 10 0 0 0 
0 0 0 8 12 15 67 93 122 67 93 122 67 93 122 67 93 122 67 93 122 67 93 122 67 93 122 67 93 122 67 93 122 67 93 122 67 93 122 67 93 122 67 93 122 67 93 122 67 93 122 67 93 122 67 93 122 67 93 122 67 93 122 67 93 122 67 93 122 67 93 122 67 93 122 67 93 122 67 93 122 67 93 122 67 93 122 67 93 122 67 93 122 67 93 122 67 93 122 67 93 122 67 93 122 67 93 122 67 93 122 67 93 122 67 93 122 67 93 122 67 93 122 67 93 122 67 93 122 67 93 122 67 93 122 67 93 122 67 93 122 67 93 122 67 93 122 67 93 122 67 93 122 67 93 122 67 93 122 67 93 122 67 93 122 67 93 122 67 93 122 67 93 122 67 93 122 52 72 95 45 62 83 45 62 83 6 8 10 0 0 0 
0 0 0 8 12 15 67 93 122 67 93 122 67 93 122 67 93 122 67 93 122 67 93 122 67 93 122 67 93 122 67 93 122 67 93 122 67 93 122 67 93 122 67 93 122 67 93 122 67 93 122 67 93 122 67 93 122 67 93 122 67 93 122 67 93 122 67 93 122 67 93 122 67 93 122 67 93 122 67 93 122 67 93 122 67 93 122 67 93 122 67 93 122 67 93 122 67 93 122 67 93 122 67 93 122 67 93 122 67 93 122 67 93 122 67 93 122 67 93 122 67 93 122 67 93 122 67 93 122 67 93 122 67 93 122 67 93 122 67 93 122 67 93 122 67 93 122 67 93 122 67 93 122 67 93 122 67 93 122 67 93 122 67 93 122 67 93 122 67 93 122 67 93 122 67 93 122 52 72 95 45 62 83 45 62 83 6 8 10 0 0 0 
0 0 0 8 12 15 67 93 122 67 93 122 67 93 122 67 93 122 67 93 122 67 93 122 67 93 122 67 93 122 67 93 122 67 93 122 67 93 122 67 93 122 67 93 122 67 93 122 67 93 122 67 93 122 67 93 122 67 93 122 67 93 122 67 93 122 67 93 122 67 93 122 67 93 122 67 93 122 67 93 122 67 93 122 67 93 122 67 93 122 67 93 122 67 93 122 67 93 122 67 93 122 67 93 122 67 93 122 67 93 122 67 93 122 67 93 122 67 93 122 67 93 122 67 93 122 67 93 122 67 93 122 67 93 122 67 93 122 67 93 122 67 93 122 67 93 122 67 93 122 67 93 122 67 93 122 67 93 122 67 93 122 67 93 122 67 93 122 67 93 122 67 93 122 67 93 122 52 72 95 45 62 83 45 62 83 6 8 10 0 0 0 
0 0 0 8 12 15 67 93 122 67 93 122 67 93 122 67 93 122 67 93 122 67 93 122 67 93 122 67 93 122 67 93 122 67 93 122 67 93 122 67 93 122 67 93 122 67 93 122 67 93 122 67 93 122 67 93 122 67 93 122 67 93 122 67 93 122 67 93 122 67 93 122 67 93 122 67 93 122 67 93 122 67 93 122 67 93 122 67 93 122 67 93 122 67 93 122 67 93 122 67 93 122 67 93 122 67 93 122 67 93 122 67 93 122 67 93 122 67 93 122 67 93 122 67 93 122 67 93 122 67 93 122 67 93 122 67 93 122 67 93 122 67 93 122 67 93 122 67 93 122 67 93 122 67 93 122 67 93 122 67 93 122 67 93 122 67 93 122 67 93 122 67 93 122 67 93 122 52 72 95 45 62 83 45 62 83 6 8 10 0 0 0 
0 0 0 8 12 15 67 93 122 67 93 122 67 93 122 67 93 122 67 93 122 67 93 122 67 93 122 67 93 122 67 93 122 67 93 122 67 93 122 67 93 122 67 93 122 67 93 122 67 93 122 67 93 122 67 93 122 67 93 122 67 93 122 67 93 122 67 93 122 67 93 122 67 93 122 67 93 122 67 93 122 67 93 122 67 93 122 67 93 122 67 93 122 67 93 122 67 93 122 67 93 122 67 93 122 67 93 122 67 93 122 67 93 122 67 93 122 67 93 122 67 93 122 67 93 122 67 93 122 67 93 122 67 93 122 67 93 122 67 93 122 67 93 122 67 93 122 67 93 122 67 93 122 67 93 122 67 93 122 67 93 122 67 93 122 67 93 122 67 93 122 67 93 122 67 93 122 52 72 95 45 62 83 45 62 83 6 8 10 0 0 0 
0 0 0 8 12 15 67 93 122 67 93 122 67 93 122 67 93 122 67 93 122 67 93 122 67 93 122 67 93 122 67 93 122 67 93 122 67 93 122 67 93 122 67 93 122 67 93 122 67 93 122 67 93 122 67 93 122 67 93 122 67 93 122 67 93 122 67 93 122 67 93 122 67 93 122 67 93 122 67 93 122 67 93 122 67 93 122 67 93 122 67 93 122 67 93 122 67 93 122 67 93 122 67 93 122 67 93 122 67 93 122 67 93 122 67 93 122 67 93 122 67 93 122 67 93 122 67 93 122 67 93 122 67 93 122 67 93 122 67 93 122 67 93 122 67 93 122 67 93 122 67 93 122 67 93 122 67 93 122 67 93 122 67 93 122 67 93 122 67 93 122 67 93 122 67 93 122 52 72 95 45 62 83 45 62 83 6 8 10 0 0 0 
0 0 0 8 12 15 67 93 122 67 93 122 67 93 122 67 93 122 67 93 122 67 93 122 67 93 122 67 93 122 67 93 122 67 93 122 67 93 122 67 93 122 67 93 122 67 93 122 67 93 122 67 93 122 67 93 122 67 93 122 67 93 122 67 93 122 67 93 122 67 93 122 67 93 122 67 93 122 67 93 122 67 93 122 67 93 122 67 93 122 67 93 122 67 93 122 67 93 122 67 93 122 67 93 122 67 93 122 67 93 122 67 93 122 67 93 122 67 93 122 67 93 122 67 93 122 67 93 122 67 93 122 67 93 122 67 93 122 67 93 122 67 93 122 67 93 122 67 93 122 67 93 122 67 93 122 67 93 122 67 93 122 67 93 122 67 93 122 67 93 122 67 93 122 67 93 122 52 72 95 45 62 83 45 62 83 6 8 10 0 0 0 
0 0 0 8 12 15 67 93 122 67 93 122 67 93 122 67 93 122 67 93 122 67 93 122 67 93 122 67 93 122 67 93 122 67 93 122 67 93 122 67 93 122 67 93 122 67 93 122 67 93 122 67 93 122 67 93 122 67 93 122 67 93 122 67 93 122 67 93 122 67 93 122 67 93 122 67 93 122 67 93 122 67 93 122 67 93 122 67 93 122 67 93 122 67 93 122 67 93 122 67 93 122 67 93 122 67 93 122 67 93 122 67 93 122 67 93 122 67 93 122 67 93 122 67 93 122 67 93 122 67 93 122 67 93 122 67 93 122 67 93 122 67 93 122 67 93 122 67 93 122 67 93 122 67 93 122 67 93 122 67 93 122 67 93 122 67 93 122 67 93 122 67 93 122 67 93 122 52 72 95 45 62 83 45 62 83 6 8 10 0 0 0 
0 0 0 8 12 15 67 93 122 67 93 122 67 93 122 67 93 122 67 93 122 67 93 122 67 93 122 67 93 122 67 93 122 67 93 122 67 93 122 67 93 122 67 93 122 67 93 122 67 93 122 67 93 122 67 93 122 67 93 122 67 93 122 67 93 122 67 93 122 67 93 122 67 93 122 67 93 122 67 93 122 67 93 122 67 93 122 67 93 122 67 93 122 67 93 122 67 93 122 67 93 122 67 93 122 67 93 122 67 93 122 67 93 122 67 93 122 67 93 122 67 93 122 67 93 122 67 93 122 67 93 122 67 93 122 67 93 122 67 93 122 67 93 122 67 93 122 67 93 122 67 93 122 67 93 122 67 93 122 67 93 122 67 93 122 67 93 122 67 93 122 67 93 122 67 93 122 52 72 95 45 62 83 45 62 83 6 8 10 0 0 0 
0 0 0 8 12 15 67 93 122 67 93 122 67 93 122 67 93 122 67 93 122 67 93 122 67 93 122 67 93 122 67 93 122 67 93 122 67 93 122 67 93 122 67 93 122 67 93 122 67 93 122 67 93 122 67 93 122 67 93 122 67 93 122 67 93 122 67 93 122 67 93 122 67 93 122 67 93 122 67 93 122 67 93 122 67 93 122 67 93 122 67 93 122 67 93 122 67 93 122 67 93 122 67 93 122 67 93 122 67 93 122 67 93 122 67 93 122 67 93 122 67 93 122 67 93 122 67 93 122 67 93 122 67 93 122 67 93 122 67 93 122 67 93 122 67 93 122 67 93 122 67 93 122 67 93 122 67 93 122 67 93 122 67 93 122 67 93 122 67 93 122 67 93 122 67 93 122 52 72 95 45 62 83 45 62 83 6 8 10 0 0 0 
0 0 0 8 12 15 67 93 122 67 93 122 67 93 122 67 93 122 67 93 122 67 93 122 67 93 122 67 93 122 67 93 122 67 93 122 67 93 122 67 93 122 67 93 122 67 93 122 67 93 122 67 93 122 67 93 122 67 93 122 67 93 122 67 93 122 67 93 122 67 93 122 67 93 122 67 93 122 67 93 122 67 93 122 67 93 122 67 93 122 67 93 122 67 93 122 67 93 122 67 93 122 67 93 122 67 93 122 67 93 122 67 93 122 67 93 122 67 93 122 67 93 122 67 93 122 67 93 122 67 93 122 67 93 122 67 93 122 67 93 122 67 93 122 67 93 122 67 93 122 67 93 122 67 93 122 67 93 122 67 93 122 67 93 122 67 93 122 67 93 122 67 93 122 67 93 122 52 72 95 45 62 83 45 62 83 6 8 10 0 0 0 
0 0 0 8 12 15 67 93 122 67 93 122 67 93 122 67 93 122 67 93 122 67 93 122 67 93 122 67 93 122 67 93 122 67 93 122 67 93 122 67 93 122 67 93 122 67 93 122 67 93 122 67 93 122 67 93 122 67 93 122 67 93 122 67 93 122 67 93 122 67 93 122 67 93 122 67 93 122 67 93 122 67 93 122 67 93 122 67 93 122 67 93 122 67 93 122 67 93 122 67 93 122 67 93 122 67 93 122 67 93 122 67 93 122 67 93 122 67 93 122 67 93 122 67 93 122 67 93 122 67 93 122 67 93 122 67 93 122 67 93 122 67 93 122 67 93 122 67 93 122 67 93 122 67 93 122 67 93 122 67 93 122 67 93 122 67 93 122 67 93 122 67 93 122 67 93 122 52 72 95 45 62 83 45 62 83 6 8 10 0 0 0 
0 0 0 8 12 15 67 93 122 67 93 122 67 93 122 67 93 122 67 93 122 67 93 122 67 93 122 67 93 122 67 93 122 67 93 122 67 93 122 67 93 122 67 93 122 67 93 122 67 93 122 67 93 122 67 93 122 67 93 122 67 93 122 67 93 122 67 93 122 67 93 122 67 93 122 67 93 122 67 93 122 67 93 122 67 93 122 67 93 122 67 93 122 67 93 122 67 93 122 67 93 122 67 93 122 67 93 122 67 93 122 67 93 122 67 93 122 67 93 122 67 93 122 67 93 122 67 93 122 67 93 122 67 93 122 67 93 122 67 93 122 67 93 122 67 93 122 67 93 122 67 93 122 67 93 122 67 93 122 67 93 122 67 93 122 67 93 122 67 93 122 67 93 122 67 93 122 52 72 95 45 62 83 45 62 83 6 8 10 0 0 0 
0 0 0 8 12 15 67 93 122 67 93 122 67 93 122 67 93 122 67 93 122 67 93 122 67 93 122 67 93 122 67 93 122 67 93 122 67 93 122 67 93 122 67 93 122 67 93 122 67 93 122 67 93 122 67 93 122 67 93 122 67 93 122 67 93 122 67 93 122 67 93 122 67 93 122 67 93 122 67 93 122 67 93 122 67 93 122 67 93 122 67 93 122 67 93 122 67 93 122 67 93 122 67 93 122 67 93 122 67 93 122 67 93 122 67 93 122 67 93 122 67 93 122 67 93 122 67 93 122 67 93 122 67 93 122 67 93 122 67 93 122 67 93 122 67 93 122 67 93 122 67 93 122 67 93 122 67 93 122 67 93 122 67 93 122 67 93 122 67 93 122 67 93 122 67 93 122 52 72 95 45 62 83 45 62 83 6 8 10 0 0 0 
0 0 0 8 12 15 67 93 122 67 93 122 67 93 122 67 93 122 67 93 122 67 93 122 67 93 122 67 93 122 67 93 122 67 93 122 67 93 122 67 93 122 67 93 122 67 93 122 67 93 122 67 93 122 67 93 122 67 93 122 67 93 122 67 93 122 67 93 122 67 93 122 67 93 122 67 93 122 67 93 122 67 93 122 67 93 122 67 93 122 67 93 122 67 93 122 67 93 122 67 93 122 67 93 122 67 93 122 67 93 122 67 93 122 67 93 122 67 93 122 67 93 122 67 93 122 67 93 122 67 93 122 67 93 122 67 93 122 67 93 122 67 93 122 67 93 122 67 93 122 67 93 122 67 93 122 67 93 122 67 93 122 67 93 122 67 93 122 67 93 122 67 93 122 67 93 122 52 72 95 45 62 83 45 62 83 6 8 10 0 0 0 
0 0 0 8 12 15 67 93 122 67 93 122 67 93 122 67 93 122 67 93 122 67 93 122 67 93 122 67 93 122 67 93 122 67 93 122 67 93 122 67 93 122 67 93 122 67 93 122 67 93 122 67 93 122 67 93 122 67 93 122 67 93 122 67 93 122 67 93 122 67 93 122 67 93 122 67 93 122 67 93 122 67 93 122 67 93 122 67 93 122 67 93 122 67 93 122 67 93 122 67 93 122 67 93 122 67 93 122 67 93 122 67 93 122 67 93 122 67 93 122 67 93 122 67 93 122 67 93 122 67 93 122 67 93 122 67 93 122 67 93 122 67 93 122 67 93 122 67 93 122 67 93 122 67 93 122 67 93 122 67 93 122 67 93 122 67 93 122 67 93 122 67 93 122 67 93 122 52 72 95 45 62 83 45 62 83 6 8 10 0 0 0 
0 0 0 8 12 15 67 93 122 67 93 122 67 93 122 67 93 122 67 93 122 67 93 122 67 93 122 67 93 122 67 93 122 67 93 122 67 93 122 67 93 122 67 93 122 67 93 122 67 93 122 67 93 122 67 93 122 67 93 122 67 93 122 67 93 122 67 93 122 67 93 122 67 93 122 67 93 122 67 93 122 67 93 122 67 93 122 67 93 122 67 93 122 67 93 122 67 93 122 67 93 122 67 93 122 67 93 122 67 93 122 67 93 122 67 93 122 67 93 122 67 93 122 67 93 122 67 93 122 67 93 122 67 93 122 67 93 122 67 93 122 67 93 122 67 93 122 67 93 122 67 93 122 67 93 122 67 93 122 67 93 122 67 93 122 67 93 122 67 93 122 67 93 122 67 93 122 52 72 95 45 62 83 45 62 83 6 8 10 0 0 0 
0 0 0 8 12 15 67 93 122 67 93 122 67 93 122 67 93 122 67 93 122 67 93 122 67 93 122 67 93 122 67 93 122 67 93 122 67 93 122 67 93 122 67 93 122 67 93 122 67 93 122 67 93 122 67 93 122 67 93 122 67 93 122 67 93 122 67 93 122 67 93 122 67 93 122 67 93 122 67 93 122 67 93 122 67 93 122 67 93 122 67 93 122 67 93 122 67 93 122 67 93 122 67 93 122 67 93 122 67 93 122 67 93 122 67 93 122 67 93 122 67 93 122 67 93 122 67 93 122 67 93 122 67 93 122 67 93 122 67 93 122 67 93 122 67 93 122 67 93 122 67 93 122 67 93 122 67 93 122 67 93 122 67 93 122 67 93 122 67 93 122 67 93 122 67 93 122 52 72 95 45 62 83 45 62 83 6 8 10 0 0 0 
0 0 0 8 12 15 67 93 122 67 93 122 67 93 122 67 93 122 67 93 122 67 93 122 67 93 122 67 93 122 67 93 122 67 93 122 67 93 122 67 93 122 67 93 122 67 93 122 67 93 122 67 93 122 67 93 122 67 93 122 67 93 122 67 93 122 67 93 122 67 93 122 67 93 122 67 93 122 67 93 122 67 93 122 67 93 122 67 93 122 67 93 122 67 93 122 67 93 122 67 93 122 67 93 122 67 93 122 67 93 122 67 93 122 67 93 122 67 93 122 67 93 122 67 93 122 67 93 122 67 93 122 67 93 122 67 93 122 67 93 122 67 93 122 67 93 122 67 93 122 67 93 122 67 93 122 67 93 122 67 93 122 67 93 122 67 93 122 67 93 122 67 93 122 67 93 122 52 72 95 45 62 83 45 62 83 6 8 10 0 0 0 
0 0 0 4 6 7 31 43 57 31 43 57 31 43 57 31 43 57 31 43 57 31 43 57 31 43 57 31 43 57 31 43 57 31 43 57 31 43 57 31 43 57 31 43 57 31 43 57 31 43 57 31 43 57 31 43 57 31 43 57 31 43 57 31 43 57 31 43 57 31 43 57 31 43 57 31 43 57 31 43 57 31 43 57 31 43 57 31 43 57 31 43 57 31 43 57 31 43 57 31 43 57 31 43 57 31 43 57 31 43 57 31 43 57 31 43 57 31 43 57 31 43 57 31 43 57 31 43 57 31 43 57 31 43 57 31 43 57 31 43 57 31 43 57 31 43 57 31 43 57 31 43 57 31 43 57 31 43 57 31 43 57 31 43 57 31 43 57 31 43 57 31 43 57 31 43 57 24 34 44 21 29 39 21 29 39 3 4 5 0 0 0 
0 0 0 0 0 0 0 0 0 0 0 0 0 0 0 0 0 0 0 0 0 0 0 0 0 0 0 0 0 0 0 0 0 0 0 0 0 0 0 0 0 0 0 0 0 0 0 0 0 0 0 0 0 0 0 0 0 0 0 0 0 0 0 0 0 0 0 0 0 0 0 0 0 0 0 0 0 0 0 0 0 0 0 0 0 0 0 0 0 0 0 0 0 0 0 0 0 0 0 0 0 0 0 0 0 0 0 0 0 0 0 0 0 0 0 0 0 0 0 0 0 0 0 0 0 0 0 0 0 0 0 0 0 0 0 0 0 0 0 0 0 0 0 0 0 0 0 0 0 0 0 0 0 0 0 0 0 0 0 0 0 0 0 0 0 0 0 0 0 0 0 0 0 0 0 0 0 0 0 0 0 0 0 0 0 0 0 0 0 0 0 0 
0 0 0 19 21 21 149 163 170 149 163 170 149 163 170 149 163 170 149 163 170 149 163 170 149 163 170 149 163 170 149 163 170 149 163 170 149 163 170 149 163 170 149 163 170 149 163 170 149 163 170 149 163 170 149 163 170 149 163 170 149 163 170 149 163 170 149 163 170 149 163 170 149 163 170 149 163 170 149 163 170 149 163 170 149 163 170 149 163 170 149 163 170 149 163 170 149 163 170 149 163 170 149 163 170 149 163 170 149 163 170 149 163 170 149 163 170 149 163 170 149 163 170 149 163 170 149 163 170 149 163 170 149 163 170 149 163 170 149 163 170 149 163 170 149 163 170 149 163 170 149 163 170 149 163 170 149 163 170 149 163 170 149 163 170 149 163 170 149 163 170 149 163 170 149 163 170 134 159 170 127 157 170 127 157 170 16 19 21 0 0 0 
0 0 0 28 31 32 223 245 255 223 245 255 223 245 255 223 245 255 223 245 255 223 245 255 223 245 255 223 245 255 223 245 255 223 245 255 223 245 255 223 245 255 223 245 255 223 245 255 223 245 255 223 245 255 223 245 255 223 245 255 223 245 255 223 245 255 223 245 255 223 245 255 223 245 255 223 245 255 223 245 255 223 245 255 223 245 255 223 245 255 223 245 255 223 245 255 223 245 255 223 245 255 223 245 255 223 245 255 223 245 255 223 245 255 223 245 255 223 245 255 223 245 255 223 245 255 223 245 255 223 245 255 223 245 255 223 245 255 223 245 255 223 245 255 223 245 255 223 245 255 223 245 255 223 245 255 223 245 255 223 245 255 223 245 255 223 245 255 223 245 255 223 245 255 223 245 255 201 238 255 191 235 255 191 235 255 24 29 32 0 0 0 
0 0 0 28 31 32 223 245 255 223 245 255 223 245 255 223 245 255 223 245 255 223 245 255 223 245 255 223 245 255 223 245 255 223 245 255 223 245 255 223 245 255 223 245 255 223 245 255 223 245 255 223 245 255 223 245 255 223 245 255 223 245 255 223 245 255 223 245 255 223 245 255 223 245 255 223 245 255 223 245 255 223 245 255 223 245 255 223 245 255 223 245 255 223 245 255 223 245 255 223 245 255 223 245 255 223 245 255 223 245 255 223 245 255 223 245 255 223 245 255 223 245 255 223 245 255 223 245 255 223 245 255 223 245 255 223 245 255 223 245 255 223 245 255 223 245 255 223 245 255 223 245 255 223 245 255 223 245 255 223 245 255 223 245 255 223 245 255 223 245 255 223 245 255 223 245 255 201 238 255 191 235 255 191 235 255 24 29 32 0 0 0 
0 0 0 12 13 14 221 243 253 223 245 255 223 245 255 223 245 255 223 245 255 223 245 255 223 245 255 223 245 255 223 245 255 223 245 255 223 245 255 223 245 255 223 245 255 223 245 255 223 245 255 223 245 255 223 245 255 223 245 255 223 245 255 223 245 255 223 245 255 223 245 255 223 245 255 223 245 255 223 245 255 223 245 255 223 245 255 223 245 255 223 245 255 223 245 255 223 245 255 223 245 255 223 245 255 223 245 255 223 245 255 223 245 255 223 245 255 223 245 255 223 245 255 223 245 255 223 245 255 223 245 255 223 245 255 223 245 255 223 245 255 223 245 255 223 245 255 223 245 255 223 245 255 223 245 255 223 245 255 223 245 255 223 245 255 223 245 255 223 245 255 223 245 255 223 245 255 199 237 255 191 235 255 189 233 253 10 13 14 0 0 0 
0 0 0 0 0 0 157 172 179 223 245 255 223 245 255 223 245 255 223 245 255 223 245 255 223 245 255 223 245 255 223 245 255 223 245 255 223 245 255 223 245 255 223 245 255 223 245 255 223 245 255 223 245 255 223 245 255 223 245 255 223 245 255 223 245 255 223 245 255 223 245 255 223 245 255 223 245 255 223 245 255 223 245 255 223 245 255 223 245 255 223 245 255 223 245 255 223 245 255 223 245 255 223 245 255 223 245 255 223 245 255 223 245 255 223 245 255 223 245 255 223 245 255 223 245 255 223 245 255 223 245 255 223 245 255 223 245 255 223 245 255 223 245 255 223 245 255 223 245 255 223 245 255 223 245 255 223 245 255 223 245 255 223 245 255 223 245 255 223 245 255 223 245 255 221 245 255 193 235 255 191 235 255 133 164 178 0 0 0 0 0 0 
0 0 0 0 0 0 14 16 16 136 150 156 198 217 226 208 229 238 208 229 238 208 229 238 208 229 238 208 229 238 208 229 238 208 229 238 208 229 238 208 229 238 208 229 238 208 229 238 208 229 238 208 229 238 208 229 238 208 229 238 208 229 238 208 229 238 208 229 238 208 229 238 208 229 238 208 229 238 208 229 238 208 229 238 208 229 238 208 229 238 208 229 238 208 229 238 208 229 238 208 229 238 208 229 238 208 229 238 208 229 238 208 229 238 208 229 238 208 229 238 208 229 238 208 229 238 208 229 238 208 229 238 208 229 238 208 229 238 208 229 238 208 229 238 208 229 238 208 229 238 208 229 238 208 229 238 208 229 238 208 229 238 208 229 238 208 229 238 208 229 238 208 229 238 189 223 238 169 208 226 116 143 155 12 15 16 0 0 0 0 0 0 
0 0 0 0 0 0 0 0 0 0 0 0 0 0 0 0 0 0 0 0 0 0 0 0 0 0 0 0 0 0 0 0 0 0 0 0 0 0 0 0 0 0 0 0 0 0 0 0 0 0 0 0 0 0 0 0 0 0 0 0 0 0 0 0 0 0 0 0 0 0 0 0 0 0 0 0 0 0 0 0 0 0 0 0 0 0 0 0 0 0 0 0 0 0 0 0 0 0 0 0 0 0 0 0 0 0 0 0 0 0 0 0 0 0 0 0 0 0 0 0 0 0 0 0 0 0 0 0 0 0 0 0 0 0 0 0 0 0 0 0 0 0 0 0 0 0 0 0 0 0 0 0 0 0 0 0 0 0 0 0 0 0 0 0 0 0 0 0 0 0 0 0 0 0 0 0 0 0 0 0 0 0 0 0 0 0 0 0 0 0 0 0 
0 0 0 0 0 0 0 0 0 0 0 0 0 0 0 0 0 0 0 0 0 0 0 0 0 0 0 0 0 0 0 0 0 0 0 0 0 0 0 0 0 0 0 0 0 0 0 0 0 0 0 0 0 0 0 0 0 0 0 0 0 0 0 0 0 0 0 0 0 0 0 0 0 0 0 21 26 29 38 47 51 38 47 51 38 47 51 38 47 51 38 47 51 38 47 51 38 47 51 38 47 51 38 47 51 35 46 51 25 43 51 25 43 51 14 24 29 0 0 0 0 0 0 0 0 0 0 0 0 0 0 0 0 0 0 0 0 0 0 0 0 0 0 0 0 0 0 0 0 0 0 0 0 0 0 0 0 0 0 0 0 0 0 0 0 0 0 0 0 0 0 0 0 0 0 0 0 0 0 0 0 0 0 0 0 0 0 0 0 0 0 0 
0 0 0 0 0 0 0 0 0 0 0 0 0 0 0 0 0 0 0 0 0 0 0 0 0 0 0 0 0 0 0 0 0 0 0 0 0 0 0 0 0 0 0 0 0 0 0 0 0 0 0 0 0 0 0 0 0 0 0 0 0 0 0 0 0 0 0 0 0 0 0 0 0 0 0 108 133 144 191 235 255 191 235 255 191 235 255 191 235 255 191 235 255 191 235 255 191 235 255 191 235 255 191 235 255 175 230 255 126 215 255 126 215 255 71 121 144 0 0 0 0 0 0 0 0 0 0 0 0 0 0 0 0 0 0 0 0 0 0 0 0 0 0 0 0 0 0 0 0 0 0 0 0 0 0 0 0 0 0 0 0 0 0 0 0 0 0 0 0 0 0 0 0 0 0 0 0 0 0 0 0 0 0 0 0 0 0 0 0 0 0 0 
0 0 0 0 0 0 0 0 0 0 0 0 0 0 0 0 0 0 0 0 0 0 0 0 0 0 0 0 0 0 0 0 0 0 0 0 0 0 0 0 0 0 0 0 0 0 0 0 0 0 0 0 0 0 0 0 0 0 0 0 0 0 0 0 0 0 0 0 0 0 0 0 0 0 0 122 150 163 191 235 255 191 235 255 191 235 255 191 235 255 191 235 255 191 235 255 191 235 255 191 235 255 191 235 255 180 231 255 126 215 255 126 215 255 80 137 162 0 0 0 0 0 0 0 0 0 0 0 0 0 0 0 0 0 0 0 0 0 0 0 0 0 0 0 0 0 0 0 0 0 0 0 0 0 0 0 0 0 0 0 0 0 0 0 0 0 0 0 0 0 0 0 0 0 0 0 0 0 0 0 0 0 0 0 0 0 0 0 0 0 0 0 
0 0 0 0 0 0 0 0 0 0 0 0 0 0 0 0 0 0 0 0 0 0 0 0 0 0 0 0 0 0 0 0 0 0 0 0 0 0 0 0 0 0 0 0 0 0 0 0 0 0 0 0 0 0 0 0 0 0 0 0 0 0 0 0 0 0 0 0 0 0 0 0 0 0 0 160 196 213 191 235 255 191 235 255 191 235 255 191 235 255 191 235 255 191 235 255 191 235 255 191 235 255 191 235 255 190 234 255 131 217 255 126 215 255 104 178 211 0 0 0 0 0 0 0 0 0 0 0 0 0 0 0 0 0 0 0 0 0 0 0 0 0 0 0 0 0 0 0 0 0 0 0 0 0 0 0 0 0 0 0 0 0 0 0 0 0 0 0 0 0 0 0 0 0 0 0 0 0 0 0 0 0 0 0 0 0 0 0 0 0 0 0 
0 0 0 0 0 0 0 0 0 0 0 0 0 0 0 0 0 0 0 0 0 0 0 0 0 0 0 0 0 0 0 0 0 0 0 0 0 0 0 0 0 0 0 0 0 0 0 0 0 0 0 0 0 0 0 0 0 0 0 0 0 0 0 0 0 0 0 0 0 0 0 0 39 48 52 191 235 255 191 235 255 191 235 255 191 235 255 191 235 255 191 235 255 191 235 255 191 235 255 191 235 255 191 235 255 191 235 255 159 225 255 126 215 255 126 215 255 25 42 50 0 0 0 0 0 0 0 0 0 0 0 0 0 0 0 0 0 0 0 0 0 0 0 0 0 0 0 0 0 0 0 0 0 0 0 0 0 0 0 0 0 0 0 0 0 0 0 0 0 0 0 0 0 0 0 0 0 0 0 0 0 0 0 0 0 0 0 0 0 0 0 0 
0 0 0 0 0 0 0 0 0 0 0 0 0 0 0 0 0 0 0 0 0 0 0 0 0 0 0 0 0 0 0 0 0 0 0 0 0 0 0 0 0 0 0 0 0 0 0 0 0 0 0 0 0 0 0 0 0 0 0 0 0 0 0 0 0 0 1 1 1 3 4 4 147 181 196 191 235 255 191 235 255 191 235 255 191 235 255 191 235 255 191 235 255 191 235 255 191 235 255 191 235 255 191 235 255 191 235 255 190 234 255 143 220 255 126 215 255 96 164 194 2 3 4 0 1 1 0 0 0 0 0 0 0 0 0 0 0 0 0 0 0 0 0 0 0 0 0 0 0 0 0 0 0 0 0 0 0 0 0 0 0 0 0 0 0 0 0 0 0 0 0 0 0 0 0 0 0 0 0 0 0 0 0 0 0 0 0 0 0 0 0 0 
0 0 0 0 0 0 0 0 0 0 0 0 0 0 0 0 0 0 0 0 0 0 0 0 0 0 0 0 0 0 0 0 0 0 0 0 0 0 0 0 0 0 0 0 0 0 0 0 0 0 0 0 0 0 0 0 0 0 0 0 0 0 0 0 0 0 2 2 2 56 70 76 89 110 119 89 110 119 89 110 119 89 110 119 89 110 119 89 110 119 119 147 159 191 235 255 191 235 255 121 148 161 89 110 119 89 110 119 89 110 119 88 110 119 73 105 119 60 100 119 37 63 75 1 2 2 0 0 0 0 0 0 0 0 0 0 0 0 0 0 0 0 0 0 0 0 0 0 0 0 0 0 0 0 0 0 0 0 0 0 0 0 0 0 0 0 0 0 0 0 0 0 0 0 0 0 0 0 0 0 0 0 0 0 0 0 0 0 0 0 0 0 
0 0 0 0 0 0 0 0 0 0 0 0 0 0 0 0 0 0 0 0 0 0 0 0 0 0 0 0 0 0 0 0 0 0 0 0 0 0 0 0 0 0 0 0 0 0 0 0 0 0 0 0 0 0 0 0 0 0 0 0 0 0 0 0 0 0 0 0 0 0 0 0 0 0 0 0 0 0 0 0 0 0 0 0 0 0 0 0 0 0 10 11 12 207 237 251 208 239 253 12 13 14 0 0 0 0 0 0 0 0 0 0 0 0 0 0 0 0 0 0 0 0 0 0 0 0 0 0 0 0 0 0 0 0 0 0 0 0 0 0 0 0 0 0 0 0 0 0 0 0 0 0 0 0 0 0 0 0 0 0 0 0 0 0 0 0 0 0 0 0 0 0 0 0 0 0 0 0 0 0 0 0 0 0 0 0 0 0 0 0 0 0 
0 0 0 0 0 0 0 0 0 0 0 0 0 0 0 0 0 0 0 0 0 0 0 0 20 22 23 117 129 134 149 163 170 149 163 170 149 163 170 149 163 170 149 163 170 149 163 170 149 163 170 149 163 170 149 163 170 149 163 170 149 163 170 149 163 170 149 163 170 149 163 170 149 163 170 149 163 170 149 163 170 149 163 170 149 163 170 149 163 170 188 207 215 223 245 255 223 245 255 182 200 208 149 163 170 149 163 170 149 163 170 149 163 170 149 163 170 149 163 170 149 163 170 149 163 170 149 163 170 149 163 170 149 163 170 149 163 170 149 163 170 149 163 170 149 163 170 149 163 170 149 163 170 149 163 170 139 160 170 127 157 170 100 123 133 17 21 23 0 0 0 0 0 0 0 0 0 0 0 0 0 0 0 0 0 0 0 0 0 0 0 0 
0 0 0 0 0 0 0 0 0 0 0 0 0 0 0 0 0 0 0 0 0 11 13 13 195 214 223 223 245 255 223 245 255 223 245 255 223 245 255 223 245 255 223 245 255 223 245 255 223 245 255 223 245 255 223 245 255 223 245 255 223 245 255 223 245 255 223 245 255 223 245 255 223 245 255 223 245 255 223 245 255 223 245 255 223 245 255 223 245 255 223 245 255 223 245 255 223 245 255 223 245 255 223 245 255 223 245 255 223 245 255 223 245 255 223 245 255 223 245 255 223 245 255 223 245 255 223 245 255 223 245 255 223 245 255 223 245 255 223 245 255 223 245 255 223 245 255 223 245 255 223 245 255 223 245 255 223 245 255 200 237 255 191 235 255 166 205 222 9 11 12 0 0 0 0 0 0 0 0 0 0 0 0 0 0 0 0 0 0 0 0 0 
0 0 0 0 0 0 0 0 0 0 0 0 0 0 0 0 0 0 0 0 0 13 14 15 45 49 51 45 49 51 45 49 51 45 49 51 45 49 51 45 49 51 45 49 51 45 49 51 45 49 51 45 49 51 45 49 51 45 49 51 45 49 51 45 49 51 45 49 51 45 49 51 45 49 51 45 49 51 45 49 51 45 49 51 45 49 51 45 49 51 45 49 51 45 49 51 45 49 51 45 49 51 45 49 51 45 49 51 45 49 51 45 49 51 45 49 51 45 49 51 45 49 51 45 49 51 45 49 51 45 49 51 45 49 51 45 49 51 45 49 51 45 49 51 45 49 51 45 49 51 45 49 51 45 49 51 45 49 51 40 46 49 38 47 51 38 47 51 11 14 15 0 0 0 0 0 0 0 0 0 0 0 0 0 0 0 0 0 0 0 0 0 
0 0 0 0 0 0 0 0 0 0 0 0 0 0 0 0 0 0 0 0 0 0 0 0 0 0 0 0 0 0 0 0 0 0 0 0 0 0 0 0 0 0 0 0 0 0 0 0 0 0 0 0 0 0 0 0 0 0 0 0 0 0 0 0 0 0 0 0 0 0 0 0 0 0 0 0 0 0 0 0 0 0 0 0 0 0 0 0 0 0 0 0 0 0 0 0 0 0 0 0 0 0 0 0 0 0 0 0 0 0 0 0 0 0 0 0 0 0 0 0 0 0 0 0 0 0 0 0 0 0 0 0 0 0 0 0 0 0 0 0 0 0 0 0 0 0 0 0 0 0 0 0 0 0 0 0 0 0 0 0 0 0 0 0 0 0 0 0 0 0 0 0 0 1 0 0 0 0 0 0 0 0 0 0 0 0 0 0 0 0 0 0 
0 0 0 0 0 0 0 0 0 0 0 0 0 0 0 0 0 0 0 0 0 0 0 0 0 0 0 0 0 0 0 0 0 0 0 0 0 0 0 0 0 0 0 0 0 0 0 0 0 0 0 0 0 0 0 0 0 0 0 0 0 0 0 0 0 0 0 0 0 0 0 0 0 0 0 0 0 0 0 0 0 0 0 0 0 0 0 0 0 0 0 0 0 0 0 0 0 0 0 0 0 0 0 0 0 0 0 0 0 0 0 0 0 0 0 0 0 0 0 0 0 0 0 0 0 0 0 0 0 0 0 0 0 0 0 0 0 0 0 0 0 0 0 0 0 0 0 0 0 0 0 0 0 0 0 0 0 0 0 0 0 0 0 0 0 0 0 0 0 0 0 0 0 0 0 0 0 0 0 0 0 0 0 0 0 0 0 0 0 0 0 0 
0 0 0 0 0 0 0 0 0 0 0 0 0 0 0 0 0 0 0 0 0 0 0 0 0 0 0 0 0 0 0 0 0 0 0 0 0 0 0 0 0 0 0 0 0 0 0 0 0 0 0 0 0 0 0 0 0 0 0 0 0 0 0 0 0 0 0 0 0 0 0 0 0 0 0 0 0 0 0 0 0 0 0 0 0 0 0 0 0 0 0 0 0 0 0 0 0 0 0 0 0 0 0 0 0 0 0 0 0 0 0 0 0 0 0 0 0 0 0 0 0 0 0 0 0 0 0 0 0 0 0 0 0 0 0 0 0 0 0 0 0 0 0 0 0 0 0 0 0 0 0 0 0 0 0 0 0 0 0 0 0 0 0 0 0 0 0 0 0 0 0 0 0 0 0 0 0 0 0 0 0 0 0 0 0 0 0 0 0 0 0 0 
0 0 0 0 0 0 0 0 0 0 0 0 0 0 0 0 0 0 0 0 0 0 0 0 0 0 0 0 0 0 0 0 0 0 0 0 0 0 0 0 0 0 0 0 0 0 0 0 0 0 0 0 0 0 0 0 0 0 0 0 0 0 0 0 0 0 0 0 0 0 0 0 0 0 0 0 0 0 0 0 0 0 0 0 0 0 0 0 0 0 0 0 0 0 0 0 0 0 0 0 0 0 0 0 0 0 0 0 0 0 0 0 0 0 0 0 0 0 0 0 0 0 0 0 0 0 0 0 0 0 0 0 0 0 0 0 0 0 0 0 0 0 0 0 0 0 0 0 0 0 0 0 0 0 0 0 0 0 0 0 0 0 0 0 0 0 0 0 0 0 0 0 0 0 0 0 0 0 0 0 0 0 0 0 0 0 0 0 0 0 0 0 
