<?xml version="1.0" standalone="no"?>
<!DOCTYPE svg PUBLIC "-//W3C//DTD SVG 20010904//EN"
 "http://www.w3.org/TR/2001/REC-SVG-20010904/DTD/svg10.dtd">
<svg version="1.0" xmlns="http://www.w3.org/2000/svg"
 width="128.000000pt" height="128.000000pt" viewBox="0 0 128.000000 128.000000"
 preserveAspectRatio="xMidYMid meet">

<g transform="translate(0.000000,128.000000) scale(0.100000,-0.100000)"
fill="#000000" stroke="none">
<path d="M231 1262 c-19 -9 -44 -30 -55 -45 -21 -28 -21 -40 -24 -565 -2 -496
-1 -540 15 -571 10 -19 31 -44 46 -55 28 -20 40 -21 427 -21 387 0 399 1 427
21 63 46 63 48 63 497 0 322 -3 415 -14 440 -15 38 -272 286 -313 304 -19 8
-107 12 -283 13 -224 0 -259 -2 -289 -18z m509 -178 c0 -63 5 -124 11 -136 19
-35 70 -48 189 -48 l110 0 0 -392 c0 -216 -4 -398 -8 -405 -18 -29 -70 -33
-402 -33 -332 0 -384 4 -402 33 -4 7 -8 249 -8 539 0 465 2 528 16 542 13 14
51 16 255 16 l239 0 0 -116z m180 -17 l92 -88 -99 3 -98 3 -3 88 c-2 52 1 87
6 85 5 -1 51 -43 102 -91z"/>
<path d="M332 768 c-20 -20 -14 -48 14 -58 14 -6 143 -10 293 -10 289 0 306 3
299 51 l-3 24 -295 3 c-222 2 -299 -1 -308 -10z"/>
<path d="M332 568 c-20 -20 -14 -48 14 -58 14 -6 143 -10 293 -10 289 0 306 3
299 51 l-3 24 -295 3 c-222 2 -299 -1 -308 -10z"/>
<path d="M332 368 c-20 -20 -14 -48 14 -58 14 -6 63 -10 109 -10 65 0 88 4
105 18 19 16 21 22 11 40 -11 21 -19 22 -119 22 -71 0 -112 -4 -120 -12z"/>
</g>
</svg>
